<?xml version="1.0" encoding="UTF-8" standalone="no"?><!DOCTYPE svg PUBLIC "-//W3C//DTD SVG 1.1//EN" "http://www.w3.org/Graphics/SVG/1.1/DTD/svg11.dtd"><svg width="100%" height="100%" viewBox="0 0 15 11" version="1.1" xmlns="http://www.w3.org/2000/svg" xmlns:xlink="http://www.w3.org/1999/xlink" xml:space="preserve" xmlns:serif="http://www.serif.com/" style="fill-rule:evenodd;clip-rule:evenodd;stroke-linecap:round;stroke-linejoin:round;stroke-miterlimit:1.5;"><g id="fullscreen"><path d="M3.199,3.15l0,-3.15l-3.199,0l-0,3.15l3.199,0Z" style="fill:none;"/><clipPath id="_clip1"><path d="M3.199,3.15l0,-3.15l-3.199,0l-0,3.15l3.199,0Z"/></clipPath><g clip-path="url(#_clip1)"><rect x="0" y="0" width="4.266" height="5.775" style="fill:none;stroke:#fff;stroke-width:2px;"/></g><rect x="0" y="6.93" width="3.199" height="3.15" style="fill:none;"/><clipPath id="_clip2"><rect x="0" y="6.93" width="3.199" height="3.15"/></clipPath><g clip-path="url(#_clip2)"><path d="M0,5.88l0,4.2l5.866,0l-0,-4.2l-5.866,0Z" style="fill:none;stroke:#fff;stroke-width:2px;"/></g><path d="M11.201,6.93l-0,3.15l3.199,-0l0,-3.15l-3.199,0Z" style="fill:none;"/><clipPath id="_clip3"><path d="M11.201,6.93l-0,3.15l3.199,-0l0,-3.15l-3.199,0Z"/></clipPath><g clip-path="url(#_clip3)"><rect x="10.134" y="4.305" width="4.266" height="5.775" style="fill:none;stroke:#fff;stroke-width:2px;"/></g><rect x="11.195" y="-0" width="3.199" height="3.15" style="fill:none;"/><clipPath id="_clip4"><rect x="11.195" y="-0" width="3.199" height="3.15"/></clipPath><g clip-path="url(#_clip4)"><path d="M14.394,4.2l0,-4.2l-5.865,0l-0,4.2l5.865,0Z" style="fill:none;stroke:#fff;stroke-width:2px;"/></g><rect x="1.28" y="1.26" width="11.518" height="7.56" style="fill:#fff;"/></g></svg>