<?xml version="1.0" encoding="UTF-8" standalone="no"?>
<svg
   xmlns:dc="http://purl.org/dc/elements/1.1/"
   xmlns:cc="http://creativecommons.org/ns#"
   xmlns:rdf="http://www.w3.org/1999/02/22-rdf-syntax-ns#"
   xmlns:svg="http://www.w3.org/2000/svg"
   xmlns="http://www.w3.org/2000/svg"
   xmlns:sodipodi="http://sodipodi.sourceforge.net/DTD/sodipodi-0.dtd"
   xmlns:inkscape="http://www.inkscape.org/namespaces/inkscape"
   id="svg2741"
   version="1.1"
   viewBox="0 0 73.800003 28.5"
   height="28.5mm"
   width="73.800003mm"
   sodipodi:docname="playon-games-logo-text-white.svg"
   inkscape:version="0.92.4 (f8dce91, 2019-08-02)">
  <sodipodi:namedview
     pagecolor="#ffffff"
     bordercolor="#666666"
     borderopacity="1"
     objecttolerance="10"
     gridtolerance="10"
     guidetolerance="10"
     inkscape:pageopacity="0"
     inkscape:pageshadow="2"
     inkscape:window-width="640"
     inkscape:window-height="480"
     id="namedview35"
     showgrid="false"
     inkscape:zoom="0.88727685"
     inkscape:cx="105.79246"
     inkscape:cy="116.5001"
     inkscape:window-x="0"
     inkscape:window-y="27"
     inkscape:window-maximized="0"
     inkscape:current-layer="g2656" />
  <defs
     id="defs2735">
    <clipPath
       id="clipPath82"
       clipPathUnits="userSpaceOnUse">
      <path
         id="path80"
         d="M 0,720 H 1280 V 0 H 0 Z" />
    </clipPath>
  </defs>
  <metadata
     id="metadata2738">
    <rdf:RDF>
      <cc:Work
         rdf:about="">
        <dc:format>image/svg+xml</dc:format>
        <dc:type
           rdf:resource="http://purl.org/dc/dcmitype/StillImage" />
        <dc:title />
      </cc:Work>
    </rdf:RDF>
  </metadata>
  <g
     transform="translate(0,-268.5)"
     id="layer1">
    <g
       transform="matrix(0.35277777,0,0,-0.35277777,-238.39445,367.91352)"
       id="g2658">
      <g
         id="g2656"
         clip-path="url(#clipPath82)">
        <g
           id="g2608"
           transform="translate(756.3398,241.3027)">
          <path
             d="m 0,0 c 0,-22.251 -18.038,-40.288 -40.288,-40.288 -22.251,0 -40.288,18.037 -40.288,40.288 0,22.25 18.037,40.288 40.288,40.288 C -18.038,40.288 0,22.25 0,0"
             style="fill:#ec1c24;fill-opacity:1;fill-rule:nonzero;stroke:none"
             id="path2606" />
        </g>
        <g
           id="g2612"
           transform="translate(719.2422,258.2939)">
          <path
             d="m 0,0 c 3.108,-0.397 5.76,-2.031 7.54,-4.355 1.777,-2.321 2.684,-5.333 2.291,-8.478 -0.393,-3.146 -2.008,-5.834 -4.3,-7.638 -2.295,-1.8 -5.264,-2.717 -8.373,-2.32 -1.381,0.177 -2.672,0.598 -3.834,1.216 l 0.001,0.008 c 0.223,1.79 1.916,2.971 3.659,2.596 0.209,-0.045 0.421,-0.081 0.637,-0.108 2.096,-0.269 4.1,0.349 5.647,1.563 1.546,1.216 2.634,3.029 2.899,5.152 0.265,2.123 -0.345,4.152 -1.545,5.718 -1.2,1.565 -2.989,2.669 -5.085,2.937 -2.096,0.269 -4.099,-0.351 -5.646,-1.563 -1.541,-1.211 -2.628,-3.019 -2.897,-5.13 0,0 -1.598,-12.809 -1.937,-15.537 2.483,-0.318 5.327,-0.684 7.588,-0.973 4.23,-0.541 8.278,0.705 11.4,3.159 3.123,2.453 5.321,6.114 5.855,10.399 0.535,4.286 -0.696,8.385 -3.119,11.548 C 8.359,1.356 4.744,3.583 0.514,4.124 -3.717,4.665 -7.765,3.419 -10.888,0.966 c -3.12,-2.454 -5.32,-6.115 -5.854,-10.401 l -0.003,-0.023 -10e-4,-0.002 v -0.003 -0.003 l -0.001,-0.002 v -0.003 -0.003 c -0.005,-0.033 -0.009,-0.067 -0.011,-0.101 l 0.01,0.096 -4.051,-32.493 -3.298,3.39 3.691,29.603 c 0.609,5.093 3.26,9.758 7.258,12.897 3.867,3.041 8.881,4.586 14.125,3.915 5.242,-0.67 9.719,-3.429 12.722,-7.349 3,-3.917 4.526,-8.996 3.863,-14.306 -0.662,-5.31 -3.385,-9.845 -7.253,-12.887 -3.871,-3.038 -8.884,-4.583 -14.127,-3.912 -3.749,0.479 -7.5,0.959 -11.249,1.438 l 0.465,3.738 c 0.651,5.219 1.271,10.192 1.93,15.479 0.356,3.017 1.938,5.791 4.301,7.646 C -6.079,-0.517 -3.106,0.397 0,0"
             style="fill:#ffffff;fill-opacity:1;fill-rule:nonzero;stroke:none"
             id="path2610" />
        </g>
        <g
           id="g2616"
           transform="translate(771.5059,243.0947)"
           style="fill:#ffffff">
          <path
             d="M 0,0 H 2.447 C 2.991,0 3.43,0.167 3.765,0.502 4.099,0.836 4.266,1.275 4.266,1.818 4.266,2.352 4.102,2.775 3.772,3.094 3.444,3.41 2.997,3.569 2.431,3.569 H 0 Z m -2.583,5.778 h 5.03 C 3.104,5.778 3.739,5.702 4.351,5.549 4.963,5.396 5.529,4.968 6.05,4.266 6.571,3.563 6.832,2.759 6.832,1.853 6.832,0.493 6.503,-0.447 5.847,-0.968 5.189,-1.489 4.64,-1.812 4.198,-1.937 3.756,-2.062 3.178,-2.124 2.465,-2.124 H 0 v -4.351 h -2.583 z"
             style="fill:#ffffff;fill-opacity:1;fill-rule:nonzero;stroke:none"
             id="path2614" />
        </g>
        <path
           d="m 779.17,248.873 h 2.447 V 236.62 h -2.447 z"
           style="fill:#ffffff;fill-opacity:1;fill-rule:nonzero;stroke:none"
           id="path2618" />
        <g
           id="g2622"
           transform="translate(789.1289,241.209)"
           style="fill:#ffffff">
          <path
             d="m 0,0 -0.425,-0.238 c -0.238,-0.068 -0.484,-0.13 -0.739,-0.187 -0.255,-0.056 -0.527,-0.113 -0.816,-0.17 -0.29,-0.056 -0.504,-0.102 -0.646,-0.135 -0.142,-0.035 -0.297,-0.089 -0.468,-0.163 -0.17,-0.073 -0.334,-0.18 -0.492,-0.322 -0.159,-0.142 -0.238,-0.36 -0.238,-0.654 0,-0.341 0.128,-0.607 0.383,-0.799 0.254,-0.193 0.614,-0.289 1.079,-0.289 0.645,0 1.2,0.164 1.665,0.493 C -0.232,-2.136 0,-1.745 0,-1.292 Z m -0.901,-4.3 c -0.612,-0.362 -1.303,-0.544 -2.074,-0.544 -0.997,0 -1.796,0.255 -2.395,0.765 -0.601,0.51 -0.901,1.184 -0.901,2.022 0,0.884 0.232,1.516 0.697,1.895 0.464,0.38 0.923,0.643 1.376,0.791 0.453,0.146 1.065,0.277 1.836,0.391 l 0.934,0.119 c 0.498,0.079 0.833,0.167 1.003,0.263 0.17,0.096 0.255,0.246 0.255,0.45 v 0.289 c 0,0.272 -0.137,0.504 -0.408,0.697 -0.273,0.192 -0.601,0.289 -0.985,0.289 -0.556,0 -0.99,-0.122 -1.301,-0.365 C -3.176,2.518 -3.331,2.181 -3.331,1.75 V 1.614 h -2.277 c 0,1.088 0.345,1.908 1.036,2.464 0.691,0.556 1.694,0.833 3.009,0.833 C -0.329,4.911 0.625,4.65 1.3,4.129 1.974,3.608 2.311,2.86 2.311,1.886 v -3.943 c 0,-0.305 0.017,-0.504 0.05,-0.594 0.035,-0.091 0.194,-0.136 0.477,-0.136 H 2.99 V -4.656 L 2.464,-4.725 1.376,-4.775 c -0.51,0 -0.875,0.098 -1.096,0.296 -0.221,0.199 -0.332,0.536 -0.332,1.012 -0.101,-0.17 -0.209,-0.311 -0.322,-0.425 -0.113,-0.113 -0.289,-0.25 -0.527,-0.408"
             style="fill:#ffffff;fill-opacity:1;fill-rule:nonzero;stroke:none"
             id="path2620" />
        </g>
        <g
           id="g2626"
           transform="translate(794.7363,245.8145)"
           style="fill:#ffffff">
          <path
             d="m 0,0 1.683,-5.064 c 0.034,-0.125 0.079,-0.343 0.135,-0.655 0.057,-0.311 0.103,-0.609 0.136,-0.892 0.068,0.702 0.159,1.235 0.273,1.597 L 3.823,0 H 6.424 L 2.889,-10.146 c -0.34,-0.928 -0.705,-1.509 -1.096,-1.742 -0.391,-0.231 -0.773,-0.374 -1.147,-0.425 -0.374,-0.05 -1.15,-0.076 -2.329,-0.076 v 2.005 l 0.817,-0.016 c 0.486,0 0.799,0.047 0.934,0.144 0.136,0.096 0.244,0.215 0.323,0.357 0.079,0.141 0.13,0.292 0.153,0.45 L 0.595,-8.65 -2.617,0 Z"
             style="fill:#ffffff;fill-opacity:1;fill-rule:nonzero;stroke:none"
             id="path2624" />
        </g>
        <g
           id="g2630"
           transform="translate(803.9805,242.7383)"
           style="fill:#ffffff">
          <path
             d="m 0,0 c 0,-1.343 0.295,-2.404 0.884,-3.183 0.589,-0.778 1.399,-1.168 2.43,-1.168 1.031,0 1.844,0.387 2.439,1.16 C 6.348,-2.418 6.645,-1.354 6.645,0 6.645,1.354 6.351,2.418 5.761,3.19 5.172,3.964 4.356,4.351 3.314,4.351 2.283,4.351 1.473,3.967 0.884,3.199 0.295,2.432 0,1.365 0,0 M -0.781,4.928 C 0.307,5.914 1.671,6.406 3.314,6.406 4.968,6.406 6.229,6.01 7.096,5.217 7.962,4.424 8.554,3.628 8.871,2.829 9.188,2.03 9.347,1.088 9.347,0 9.347,-2.107 8.755,-3.702 7.571,-4.784 6.387,-5.866 4.968,-6.406 3.314,-6.406 c -1.62,0 -2.869,0.395 -3.747,1.189 -0.879,0.793 -1.476,1.589 -1.793,2.388 -0.317,0.798 -0.476,1.741 -0.476,2.829 0,2.141 0.64,3.784 1.921,4.928"
             style="fill:#ffffff;fill-opacity:1;fill-rule:nonzero;stroke:none"
             id="path2628" />
        </g>
        <g
           id="g2634"
           transform="translate(814.5342,245.8145)"
           style="fill:#ffffff">
          <path
             d="m 0,0 h 2.396 v -1.139 c 0.758,0.941 1.67,1.41 2.736,1.41 1.008,0 1.73,-0.251 2.167,-0.755 0.435,-0.505 0.711,-0.958 0.824,-1.36 0.112,-0.403 0.17,-0.932 0.17,-1.59 v -5.76 H 5.846 v 5.71 c 0,1.132 -0.519,1.699 -1.555,1.699 -0.558,0 -1.005,-0.184 -1.341,-0.552 C 2.614,-2.705 2.446,-3.201 2.446,-3.824 v -5.37 H 0 Z"
             style="fill:#ffffff;fill-opacity:1;fill-rule:nonzero;stroke:none"
             id="path2632" />
        </g>
        <g
           id="g2638"
           transform="translate(837.9004,244.8789)"
           style="fill:#ffffff">
          <path
             d="M 0,0 C -0.08,0.431 -0.296,0.893 -0.648,1.386 -1,1.879 -1.698,2.125 -2.744,2.125 c -1.079,0 -1.926,-0.374 -2.539,-1.122 -0.613,-0.747 -0.92,-1.784 -0.92,-3.109 0,-1.337 0.298,-2.388 0.892,-3.153 0.595,-0.764 1.414,-1.147 2.456,-1.147 0.838,0 1.532,0.232 2.082,0.697 0.548,0.464 0.897,1.127 1.044,1.988 H -2.89 v 2.209 H 2.65 V -8.259 H 0.832 l -0.288,1.734 c -0.578,-1.371 -1.814,-2.056 -3.705,-2.056 -1.699,0 -3.082,0.589 -4.147,1.768 -1.065,1.177 -1.597,2.707 -1.597,4.587 0,1.926 0.566,3.496 1.699,4.707 C -6.073,3.693 -4.611,4.3 -2.821,4.3 -0.986,4.3 0.252,3.897 0.892,3.094 1.532,2.289 1.92,1.729 2.056,1.411 2.191,1.094 2.322,0.623 2.446,0 Z"
             style="fill:#ffffff;fill-opacity:1;fill-rule:nonzero;stroke:none"
             id="path2636" />
        </g>
        <g
           id="g2642"
           transform="translate(848.0283,241.209)"
           style="fill:#ffffff">
          <path
             d="m 0,0 -0.425,-0.238 c -0.238,-0.068 -0.484,-0.13 -0.739,-0.187 -0.255,-0.056 -0.527,-0.113 -0.815,-0.17 -0.29,-0.056 -0.505,-0.102 -0.647,-0.135 -0.142,-0.035 -0.297,-0.089 -0.467,-0.163 -0.17,-0.073 -0.335,-0.18 -0.493,-0.322 -0.158,-0.142 -0.237,-0.36 -0.237,-0.654 0,-0.341 0.127,-0.607 0.382,-0.799 0.254,-0.193 0.614,-0.289 1.079,-0.289 0.645,0 1.201,0.164 1.665,0.493 C -0.232,-2.136 0,-1.745 0,-1.292 Z m -0.9,-4.3 c -0.613,-0.362 -1.304,-0.544 -2.074,-0.544 -0.997,0 -1.796,0.255 -2.396,0.765 -0.601,0.51 -0.901,1.184 -0.901,2.022 0,0.884 0.232,1.516 0.697,1.895 0.465,0.38 0.924,0.643 1.377,0.791 0.453,0.146 1.064,0.277 1.835,0.391 l 0.934,0.119 c 0.498,0.079 0.833,0.167 1.003,0.263 0.17,0.096 0.255,0.246 0.255,0.45 v 0.289 c 0,0.272 -0.136,0.504 -0.408,0.697 -0.272,0.192 -0.601,0.289 -0.985,0.289 -0.556,0 -0.989,-0.122 -1.3,-0.365 C -3.176,2.518 -3.331,2.181 -3.331,1.75 V 1.614 h -2.277 c 0,1.088 0.345,1.908 1.037,2.464 0.69,0.556 1.693,0.833 3.008,0.833 C -0.329,4.911 0.626,4.65 1.3,4.129 1.974,3.608 2.312,2.86 2.312,1.886 v -3.943 c 0,-0.305 0.016,-0.504 0.05,-0.594 0.034,-0.091 0.193,-0.136 0.476,-0.136 H 2.99 V -4.656 L 2.464,-4.725 1.376,-4.775 c -0.51,0 -0.875,0.098 -1.096,0.296 -0.22,0.199 -0.331,0.536 -0.331,1.012 -0.102,-0.17 -0.21,-0.311 -0.323,-0.425 C -0.487,-4.005 -0.663,-4.142 -0.9,-4.3"
             style="fill:#ffffff;fill-opacity:1;fill-rule:nonzero;stroke:none"
             id="path2640" />
        </g>
        <g
           id="g2646"
           transform="translate(852.1064,245.8145)"
           style="fill:#ffffff">
          <path
             d="m 0,0 h 2.447 v -1.224 c 0.576,1.008 1.417,1.513 2.524,1.513 0.633,0 1.169,-0.143 1.609,-0.426 0.441,-0.283 0.751,-0.69 0.932,-1.222 0.374,0.571 0.787,0.989 1.24,1.253 0.453,0.263 0.985,0.395 1.598,0.395 1.042,0 1.755,-0.247 2.141,-0.741 0.385,-0.494 0.617,-0.922 0.697,-1.285 0.079,-0.364 0.119,-0.886 0.119,-1.567 v -5.89 h -2.448 v 5.621 c 0,1.113 -0.459,1.67 -1.377,1.67 -0.498,0 -0.888,-0.165 -1.171,-0.494 C 8.026,-2.727 7.886,-3.192 7.886,-3.795 V -9.194 H 5.438 v 5.591 c 0,1.132 -0.467,1.7 -1.401,1.7 -0.478,0 -0.863,-0.168 -1.154,-0.502 -0.29,-0.334 -0.436,-0.78 -0.436,-1.334 V -9.194 H 0 Z"
             style="fill:#ffffff;fill-opacity:1;fill-rule:nonzero;stroke:none"
             id="path2644" />
        </g>
        <g
           id="g2650"
           transform="translate(869.1514,242.2627)"
           style="fill:#ffffff">
          <path
             d="M 0,0 H 4.112 C 4.112,0.6 3.921,1.09 3.538,1.47 3.155,1.849 2.667,2.039 2.073,2.039 1.49,2.039 1.022,1.863 0.668,1.513 0.314,1.161 0.091,0.656 0,0 m 0,-1.802 c 0,-0.679 0.207,-1.226 0.62,-1.639 0.413,-0.414 0.943,-0.621 1.589,-0.621 0.906,0 1.523,0.43 1.853,1.291 H 6.543 C 6.406,-3.201 6.282,-3.529 6.169,-3.756 6.056,-3.982 5.735,-4.401 5.209,-5.014 4.682,-5.625 3.665,-5.931 2.158,-5.931 c -1.428,0 -2.56,0.448 -3.398,1.342 -0.839,0.895 -1.258,2.102 -1.258,3.62 0,1.428 0.425,2.589 1.274,3.484 0.85,0.894 1.96,1.342 3.331,1.342 1.382,0 2.481,-0.459 3.297,-1.377 C 6.22,1.563 6.628,0.334 6.628,-1.207 L 6.61,-1.802 Z"
             style="fill:#ffffff;fill-opacity:1;fill-rule:nonzero;stroke:none"
             id="path2648" />
        </g>
        <g
           id="g2654"
           transform="translate(878.8545,239.7979)"
           style="fill:#ffffff">
          <path
             d="m 0,0 c 0,-1.087 0.643,-1.631 1.928,-1.631 0.462,0 0.835,0.09 1.116,0.272 0.282,0.181 0.423,0.419 0.423,0.713 0,0.318 -0.108,0.525 -0.322,0.621 C 2.931,0.071 2.682,0.156 2.399,0.229 2.117,0.304 1.863,0.368 1.637,0.425 L 0.705,0.663 C 0.593,0.686 0.42,0.734 0.188,0.808 -0.043,0.881 -0.469,1.022 -1.09,1.232 c -0.622,0.209 -0.931,0.91 -0.931,2.099 0,0.94 0.335,1.674 1.01,2.201 0.674,0.527 1.606,0.79 2.795,0.79 1.246,0 2.237,-0.311 2.975,-0.934 C 5.087,5.081 5.336,4.753 5.506,4.401 5.676,4.051 5.761,3.608 5.761,3.076 H 3.45 L 3.467,3.229 C 3.467,3.614 3.309,3.932 2.991,4.181 2.674,4.43 2.261,4.555 1.751,4.555 1.32,4.555 0.969,4.47 0.697,4.3 0.425,4.13 0.289,3.909 0.289,3.637 0.289,3.388 0.408,3.201 0.646,3.076 0.759,2.997 1.031,2.9 1.462,2.787 L 2.312,2.566 2.787,2.447 C 2.889,2.414 3.093,2.354 3.399,2.27 3.705,2.184 4.212,2.02 4.92,1.776 5.628,1.532 5.982,0.833 5.982,-0.322 5.982,-1.297 5.613,-2.067 4.878,-2.634 4.141,-3.2 3.144,-3.483 1.887,-3.483 c -1.337,0 -2.383,0.303 -3.136,0.909 -0.754,0.606 -1.13,1.464 -1.13,2.574 z"
             style="fill:#ffffff;fill-opacity:1;fill-rule:nonzero;stroke:none"
             id="path2652" />
        </g>
      </g>
    </g>
  </g>
</svg>
